<?xml version="1.0" standalone="no"?>
<!DOCTYPE svg PUBLIC "-//W3C//DTD SVG 20010904//EN"
 "http://www.w3.org/TR/2001/REC-SVG-20010904/DTD/svg10.dtd">
<svg version="1.0" xmlns="http://www.w3.org/2000/svg"
 width="310.000000pt" height="310.000000pt" viewBox="0 0 310.000000 310.000000"
 preserveAspectRatio="xMidYMid meet">
<metadata>
Created by potrace 1.11, written by Peter Selinger 2001-2013
</metadata>
<g transform="translate(0.000000,310.000000) scale(0.100000,-0.100000)"
fill="#000000" stroke="none">
<path d="M765 2162 c-10 -20 -21 -39 -24 -42 -3 -3 -13 -18 -21 -35 -8 -16
-30 -52 -47 -80 -18 -27 -33 -55 -33 -62 0 -7 -4 -13 -9 -13 -5 0 -14 -12 -20
-27 -10 -27 -41 -83 -51 -93 -3 -3 -12 -18 -20 -35 -8 -16 -19 -37 -26 -45 -6
-8 -22 -35 -35 -60 -13 -25 -28 -48 -32 -51 -5 -3 -9 -13 -11 -22 -1 -9 -9
-24 -18 -34 -8 -10 -28 -43 -44 -73 -16 -30 -32 -56 -36 -58 -5 -2 -8 -7 -8
-12 0 -4 -22 -46 -50 -93 -27 -47 -50 -90 -50 -96 0 -6 -4 -11 -10 -11 -5 0
-10 -6 -10 -14 0 -8 -4 -16 -9 -18 -5 -1 -11 -10 -13 -18 -2 -8 -6 -17 -9 -20
-3 -3 -23 -36 -44 -75 -21 -38 -44 -77 -51 -86 -8 -8 -14 -20 -14 -25 0 -5 -9
-20 -20 -34 -11 -14 -20 -29 -20 -35 0 -7 260 -10 762 -10 l762 0 32 55 c18
30 30 58 27 62 -2 5 1 8 6 8 6 0 22 21 36 48 14 26 38 70 55 97 16 28 39 68
51 90 12 22 27 43 33 47 6 4 7 8 2 8 -5 0 -3 7 4 15 6 8 8 20 4 26 -4 7 -3 9
4 6 9 -7 92 122 92 144 0 5 4 9 9 9 5 0 13 9 16 21 7 20 7 20 20 2 7 -10 30
-50 51 -88 22 -39 102 -179 179 -312 l140 -242 384 -1 c339 0 382 2 377 15 -4
12 -270 474 -364 635 -12 19 -41 71 -66 115 -25 44 -75 130 -111 190 -35 61
-97 167 -137 237 -40 70 -76 128 -80 128 -4 0 -27 -35 -51 -77 -24 -43 -109
-189 -187 -326 l-143 -247 -24 34 c-12 19 -23 40 -23 45 0 6 -4 11 -10 11 -5
0 -10 4 -10 10 0 5 -18 39 -40 75 -22 36 -40 70 -40 75 0 6 -4 10 -10 10 -5 0
-10 4 -10 9 0 5 -22 47 -48 93 -27 46 -55 94 -63 108 -8 14 -18 28 -24 32 -7
5 -7 8 0 8 6 0 2 7 -8 14 -10 8 -18 18 -18 23 -1 11 -53 103 -59 103 -3 0 -13
-15 -21 -32 -8 -18 -53 -98 -100 -178 -47 -80 -98 -167 -113 -195 -16 -27 -50
-86 -77 -131 -27 -44 -49 -86 -49 -92 0 -6 -6 -12 -12 -15 -11 -3 -88 112 -88
132 0 4 -9 17 -20 29 -12 12 -18 22 -14 22 4 0 0 8 -9 18 -8 9 -21 28 -27 42
-6 14 -16 34 -23 45 -7 11 -25 43 -42 70 -16 28 -33 53 -38 56 -5 3 -9 10 -9
15 0 12 -108 203 -118 209 -4 3 -16 -12 -25 -33z m156 -269 c13 -16 12 -17 -3
-4 -10 7 -18 15 -18 17 0 8 8 3 21 -13z m410 -310 c13 -16 12 -17 -3 -4 -10 7
-18 15 -18 17 0 8 8 3 21 -13z m-881 -83 c0 -5 -5 -10 -11 -10 -5 0 -7 5 -4
10 3 6 8 10 11 10 2 0 4 -4 4 -10z m1280 6 c0 -2 -7 -7 -16 -10 -8 -3 -12 -2
-9 4 6 10 25 14 25 6z m-880 -320 c0 -2 -7 -7 -16 -10 -8 -3 -12 -2 -9 4 6 10
25 14 25 6z"/>
</g>
</svg>
